# xmcd CD database file
#
# Track frame offsets:
#	150
#	20412
#	38602
#	55120
#	73682
#	95545
#	113132
#	136880
#	159505
#	180690
#	201185
#	218747
#
# Disc length: 3178 seconds
#
# Revision: 3
# Processed by: cddbd v1.5.1PL0 Copyright (c) Steve Scherf et al.
# Submitted via: CDex 1.51
#
DISCID=a10c680c
DTITLE=Riverdogs - Absolutely Live
DYEAR=1993
DGENRE=Hard Rock
TTITLE0=Can't Have You
TTITLE1=The Man Is Me
TTITLE2=Toy Soldier
TTITLE3=Little Hurricane
TTITLE4=Rainig All Over
TTITLE5=Sweet Mystery
TTITLE6=If Love Is The Truth
TTITLE7=Whisper
TTITLE8=Eight Questions
TTITLE9=I Believe
TTITLE10=House Of The  Rising Sun
TTITLE11=Big House
EXTD=YEAR: 1993
EXTT0=
EXTT1=
EXTT2=
EXTT3=
EXTT4=
EXTT5=
EXTT6=
EXTT7=
EXTT8=
EXTT9=
EXTT10=
EXTT11=
PLAYORDER=
